<?xml version="1.0" standalone="no"?>
<!DOCTYPE svg PUBLIC "-//W3C//DTD SVG 1.0//EN" "http://www.w3.org/TR/2001/REC-SVG-20010904/DTD/svg10.dtd">
<svg xmlns="http://www.w3.org/2000/svg" xmlns:xlink="http://www.w3.org/1999/xlink" id="body_1" width="640" height="640">

<g transform="matrix(3.1018875 0 0 3.1018875 0 0)">
	<g>
		<g>
            <path d="M104.265 117.959C 103.961 121.539 106.391 140.488 107.645 147.918C 108.242 151.438 109.879 157.173 109.28999 160.218C 108.44899 164.462 108.20599 169.95401 108.66899 173.15201C 108.96099 175.09401 109.87999 184.05101 108.564995 187.32701C 107.87699 189.04501 106.616 197.84901 106.616 197.84901C 103.33099 206.14302 105.185 205.73502 105.185 205.73502C 106.201996 206.98302 107.944 205.83302 107.944 205.83302C 109.271 206.67902 110.19 205.63202 110.19 205.63202C 111.329 206.57501 112.657005 205.51602 112.657005 205.51602C 114.088005 206.25902 115.41501 204.88902 115.41501 204.88902C 116.23701 205.30302 116.43801 204.78003 116.43801 204.78003C 118.904015 204.62202 115.06201 196.73003 115.06201 196.73003C 114.14201 189.64203 115.97501 185.69702 115.97501 185.69702C 121.97901 167.89203 122.28401 163.16702 119.88401 156.45702C 119.20801 154.52002 119.03701 153.75302 119.34801 152.91202C 120.06701 150.97102 119.54301 143.16402 120.420006 140.06403C 122.11201 134.08502 123.781006 118.92203 124.65101 111.84703C 125.82001 102.31703 120.51001 89.53903 120.51001 89.53903C 119.34701 84.339035 121.05201 65.812035 121.05201 65.812035C 123.43301 69.51704 123.34201 76.05704 123.34201 76.05704C 122.96401 82.91604 128.88301 93.39903 128.88301 93.39903C 131.727 97.73103 132.80402 101.841034 132.80402 102.146034C 132.80402 103.394035 132.53102 106.41503 132.53102 106.41503L132.53102 106.41503L132.64001 109.04603C 132.68901 109.71603 133.06601 112.023026 133.00502 113.13803C 132.56102 120.00003 133.65102 118.70903 133.65102 118.70903C 134.57101 118.70903 135.58202 113.18703 135.58202 113.18703C 135.58202 114.61103 135.23401 118.87402 136.00201 120.482025C 136.92102 122.400024 137.59702 120.15302 137.60901 119.70203C 137.852 110.96503 138.37701 113.25403 138.37701 113.25403C 138.88802 120.342026 139.51602 121.94303 140.64201 121.38903C 141.49501 120.98203 140.71501 112.88303 140.71501 112.88303C 142.17601 117.69403 143.28401 118.46004 143.28401 118.46004C 145.695 120.15304 144.20401 115.477036 143.86902 114.55104C 142.08502 109.63104 142.03001 107.92604 142.03001 107.92604C 144.25902 112.34704 145.93901 112.183044 145.93901 112.183044C 148.113 111.489044 144.03902 105.22904 141.65201 102.23004C 140.434 100.70204 138.863 98.656044 138.40701 97.44104C 137.66402 95.38304 137.10301 88.767044 137.10301 88.767044C 136.878 80.960045 134.94801 77.569046 134.94801 77.569046C 131.64801 72.28705 131.02701 62.434044 131.02701 62.434044L131.02701 62.434044L130.88101 45.79904C 129.72401 34.45204 121.363014 34.37004 121.363014 34.37004C 112.91202 33.11204 111.736015 30.382042 111.736015 30.382042C 109.946014 27.806042 110.96902 22.868042 110.96902 22.868042C 112.45402 21.660042 113.027016 18.453041 113.027016 18.453041C 115.49302 16.56204 115.37202 13.795041 114.23302 13.825041C 113.319016 13.849041 113.52602 13.092041 113.52602 13.092041C 115.068 0.636 104.01 0 104.01 0L104.01 0L102.322 0C 102.322 0 91.259 0.636 92.798996 13.089C 92.798996 13.089 93.006 13.847 92.084 13.822C 90.948 13.792 90.842 16.559 93.298996 18.449999C 93.298996 18.449999 93.870995 21.655998 95.356995 22.864998C 95.356995 22.864998 96.38 27.802998 94.59 30.378998C 94.59 30.378998 93.418 33.108997 84.963 34.366997C 84.963 34.366997 76.588 34.448997 75.449 45.795998L75.449 45.795998L75.291 62.431C 75.291 62.431 74.682 72.284 71.369 77.566C 71.369 77.566 69.448006 80.958 69.226006 88.764C 69.226006 88.764 68.663 95.38 67.923004 97.438C 67.47201 98.647 65.90201 100.693 64.674 102.227005C 62.266003 105.22 58.219 111.467 60.384003 112.18001C 60.384003 112.18001 62.073 112.34401 64.293 107.923004C 64.293 107.923004 64.247 109.616005 62.466 114.548004C 62.116 115.462006 60.627 120.138 63.039 118.457C 63.039 118.457 64.156 117.69 65.608 112.88C 65.608 112.88 64.829 120.979 65.696 121.385994C 66.829 121.940994 67.447 120.339 67.958 113.25099C 67.958 113.25099 68.482 110.96199 68.725 119.69899C 68.737 120.14999 69.397995 122.39699 70.321 120.47899C 71.1 118.87099 70.75 114.61499 70.75 113.18399C 70.75 113.18399 71.749 118.70599 72.683 118.70599C 72.683 118.70599 73.782 119.996994 73.331 113.134995C 73.258 112.01399 73.651 109.713 73.700005 109.04299L73.700005 109.04299L73.80601 106.411995C 73.80601 106.411995 73.532005 103.397995 73.532005 102.143C 73.532005 101.832 74.61001 97.728 77.453 93.395996C 77.453 93.395996 83.366005 82.908 82.985 76.054C 82.985 76.054 82.903 69.514 85.284004 65.809C 85.284004 65.809 86.97401 84.335 85.829 89.535995C 85.829 89.535995 80.51 102.313995 81.683 111.843994C 82.547 118.937996 84.213 134.081 85.909 140.06099C 86.795 143.15498 86.270996 150.95999 86.980995 152.909C 87.300995 153.756 87.132996 154.536 86.44499 156.454C 84.05799 163.164 84.36199 167.89 90.36599 185.694C 90.36599 185.694 92.21399 189.639 91.27999 196.727C 91.27999 196.727 87.44399 204.619 89.90099 204.77701C 89.90099 204.77701 90.092995 205.3 90.923996 204.886C 90.923996 204.886 92.251 206.256 93.685 205.513C 93.685 205.513 95.013 206.573 96.147995 205.629C 96.147995 205.629 97.058 206.676 98.384995 205.83C 98.384995 205.83 100.12699 207.005 101.161995 205.732C 101.161995 205.732 103.00099 206.14 99.727 197.846C 99.727 197.846 98.473 189.053 97.782 187.32399C 96.464 184.049 97.395 175.07298 97.675995 173.14899C 98.129 169.93298 97.885994 164.45398 97.058 160.21498C 96.451996 157.17699 98.093 151.44098 98.699 147.91498C 99.944 140.49197 102.383995 121.54198 102.078995 117.95598L102.078995 117.95598L103.087 118.309975C 103.809 118.312 104.265 117.959 104.265 117.959z" stroke="none" fill="#000000" fill-rule="nonzero" />
		</g>
	</g>
</g>
</svg>